<?xml version="1.0" encoding="utf-8"?>
<!-- Generator: Adobe Illustrator 27.5.0, SVG Export Plug-In . SVG Version: 6.00 Build 0)  -->
<svg version="1.1" xmlns="http://www.w3.org/2000/svg" xmlns:xlink="http://www.w3.org/1999/xlink" x="0px" y="0px"
	 viewBox="0 0 500 500" style="enable-background:new 0 0 500 500;" xml:space="preserve">
<g id="Background_Simple">
	<g>
		<path style="fill:#92E3A9;" d="M480.747,211.007c-1.794-40.591-18.417-79.301-42.841-108.813
			c-14.289-17.265-31.307-32.246-49.739-43.746c-19.129-11.936-39.938-25.322-62.627-26.754c-5.599-0.354-11.317,0.084-16.776,1.957
			c-20.9,7.174,21.549,29.013,27.108,32.228C276.74,41.94,215.548,17.654,151.84,22.16c-12.284,0.869-24.99,2.987-35.589,10.388
			S97.696,53.825,99.715,67.263c1.669,11.108,9.332,23.334,2.763,32.267c-1.878,2.554-4.603,4.116-7.284,5.482
			c-13.754,7.008-28.713,10.931-41.677,19.702c-20.077,13.583-33.326,37.786-39.043,62.99c-5.717,25.204-4.61,51.46-1.297,76.806
			c6.234,47.703,20.68,94.764,48.128,131.14c39.208,51.96,101.668,77.071,163.543,79.564c74.872,3.017,155.014-27.847,202.43-94.878
			c7.032-9.941,13.425-20.911,15.72-33.171c2.296-12.26-0.236-26.066-8.68-33.8c-2.276-2.084-5.19-4.278-5.051-7.63
			c0.187-4.535,5.399-6.233,9.378-7.31c26.108-7.071,40.148-40.526,41.961-70.269C480.959,222.416,480.998,216.693,480.747,211.007z
			"/>
		<path style="opacity:0.7;fill:#FFFFFF;" d="M480.747,211.007c-1.794-40.591-18.417-79.301-42.841-108.813
			c-14.289-17.265-31.307-32.246-49.739-43.746c-19.129-11.936-39.938-25.322-62.627-26.754c-5.599-0.354-11.317,0.084-16.776,1.957
			c-20.9,7.174,21.549,29.013,27.108,32.228C276.74,41.94,215.548,17.654,151.84,22.16c-12.284,0.869-24.99,2.987-35.589,10.388
			S97.696,53.825,99.715,67.263c1.669,11.108,9.332,23.334,2.763,32.267c-1.878,2.554-4.603,4.116-7.284,5.482
			c-13.754,7.008-28.713,10.931-41.677,19.702c-20.077,13.583-33.326,37.786-39.043,62.99c-5.717,25.204-4.61,51.46-1.297,76.806
			c6.234,47.703,20.68,94.764,48.128,131.14c39.208,51.96,101.668,77.071,163.543,79.564c74.872,3.017,155.014-27.847,202.43-94.878
			c7.032-9.941,13.425-20.911,15.72-33.171c2.296-12.26-0.236-26.066-8.68-33.8c-2.276-2.084-5.19-4.278-5.051-7.63
			c0.187-4.535,5.399-6.233,9.378-7.31c26.108-7.071,40.148-40.526,41.961-70.269C480.959,222.416,480.998,216.693,480.747,211.007z
			"/>
	</g>
</g>
<g id="Floor">
	<g>
		<line style="fill:none;stroke:#263238;stroke-miterlimit:10;" x1="4.746" y1="443.933" x2="493.008" y2="443.933"/>
	</g>
</g>
<g id="Clouds">
	<path style="fill:none;stroke:#263238;stroke-miterlimit:10;" d="M179.125,64.922c2.888-1.703,5.326-5.1,8.095-7.266
		c7.059-5.522,15.702-8.805,24.723-8.621c20.686,0.422,29.128,22.796,31.661,23.64c2.533,0.844,8.021-8.021,17.308-6.332
		c9.287,1.689,10.976,9.287,13.931,11.398c2.955,2.111,10.976-3.799,16.042-2.111c5.066,1.689,4.222,7.177,9.287,7.599
		c5.066,0.422,8.021-2.111,11.82-1.266c3.799,0.844,6.332,4.644,6.332,4.644c-58.694,0-117.389-0.011-176.083,0.001
		c-42.911,0.008-85.822-0.004-128.732-0.007c4.633-7.827,11.09-15.064,19.656-18.122c13.066-4.665,27.21,1.288,40.901,3.529
		c1.369,0.224,2.851,0.394,4.079-0.253c1.651-0.869,2.273-2.881,2.703-4.697c2.453-10.369,3.8-21.34,9.527-30.325
		c8.943-14.03,28.626-20.011,43.863-13.33c14.31,6.275,22.652,20.939,31.031,34.127c1.681,2.646,3.48,5.347,6.12,7.038
		C174.461,66.535,176.923,66.221,179.125,64.922z"/>
	<path style="fill:none;stroke:#263238;stroke-miterlimit:10;" d="M371.277,199.164c1.886-1.112,3.478-3.331,5.287-4.745
		c4.61-3.606,10.255-5.751,16.147-5.631c13.51,0.276,19.024,14.888,20.678,15.439c1.654,0.551,5.238-5.238,11.304-4.136
		c6.066,1.103,7.168,6.066,9.098,7.444c1.93,1.379,7.168-2.481,10.477-1.378s2.757,4.687,6.065,4.963
		c3.309,0.276,5.238-1.378,7.72-0.827c2.481,0.551,4.135,3.033,4.135,3.033c-38.333,0-76.666-0.007-114.999,0
		c-28.025,0.006-56.05-0.002-84.074-0.004c3.026-5.112,7.243-9.838,12.837-11.835c8.533-3.046,17.77,0.841,26.712,2.304
		c0.894,0.146,1.862,0.257,2.664-0.165c1.078-0.568,1.485-1.882,1.765-3.068c1.602-6.772,2.482-13.937,6.222-19.805
		c5.841-9.163,18.695-13.069,28.647-8.706c9.346,4.098,14.794,13.675,20.267,22.288c1.098,1.728,2.273,3.492,3.997,4.597
		C368.23,200.217,369.839,200.012,371.277,199.164z"/>
	<path style="fill:none;stroke:#263238;stroke-miterlimit:10;" d="M80.691,422.403c1.312-0.774,2.42-2.318,3.679-3.302
		c3.208-2.509,7.136-4.001,11.235-3.918c9.4,0.192,13.237,10.359,14.388,10.743s3.645-3.645,7.865-2.878
		c4.22,0.767,4.988,4.22,6.331,5.18c1.343,0.959,4.988-1.727,7.29-0.959c2.302,0.767,1.918,3.261,4.22,3.453
		c2.302,0.192,3.645-0.959,5.372-0.576c1.726,0.384,2.877,2.11,2.877,2.11c-26.673,0-53.345-0.005-80.018,0
		c-19.5,0.004-39-0.002-58.5-0.003c2.105-3.557,5.04-6.846,8.932-8.235c5.937-2.12,12.365,0.585,18.586,1.603
		c0.622,0.102,1.296,0.179,1.854-0.115c0.75-0.395,1.033-1.309,1.228-2.134c1.115-4.712,1.727-9.698,4.329-13.78
		c4.064-6.376,13.009-9.094,19.933-6.058c6.503,2.851,10.294,9.515,14.102,15.509c0.764,1.203,1.582,2.43,2.781,3.199
		C78.571,423.136,79.69,422.993,80.691,422.403z"/>
	<path style="fill:none;stroke:#263238;stroke-miterlimit:10;" d="M337.871,430.716c1.026-0.605,1.892-1.811,2.875-2.58
		c2.507-1.961,5.576-3.127,8.78-3.062c7.346,0.15,10.344,8.096,11.244,8.395c0.9,0.3,2.848-2.848,6.147-2.249
		c3.298,0.6,3.898,3.298,4.947,4.048c1.049,0.75,3.898-1.349,5.697-0.749c1.799,0.6,1.499,2.549,3.298,2.698
		c1.799,0.15,2.848-0.75,4.198-0.45c1.349,0.3,2.249,1.649,2.249,1.649c-20.844,0-41.688-0.004-62.533,0
		c-15.239,0.003-30.478-0.001-45.717-0.002c1.645-2.78,3.938-5.35,6.98-6.436c4.64-1.656,9.663,0.457,14.525,1.253
		c0.486,0.08,1.012,0.14,1.449-0.09c0.586-0.309,0.807-1.023,0.96-1.668c0.871-3.682,1.349-7.578,3.383-10.769
		c3.176-4.982,10.166-7.107,15.577-4.734c5.082,2.228,8.044,7.436,11.02,12.12c0.597,0.94,1.236,1.899,2.173,2.5
		C336.215,431.289,337.089,431.177,337.871,430.716z"/>
	<path style="fill:none;stroke:#263238;stroke-miterlimit:10;" d="M428.264,395.84c1.025-0.605,1.891-1.811,2.875-2.58
		c2.507-1.961,5.576-3.127,8.78-3.062c7.346,0.15,10.344,8.096,11.244,8.395c0.9,0.3,2.849-2.848,6.147-2.249
		c3.298,0.6,3.898,3.298,4.947,4.048c1.049,0.75,3.898-1.349,5.697-0.75s1.499,2.549,3.298,2.699c1.799,0.15,2.849-0.75,4.198-0.45
		c1.349,0.3,2.249,1.649,2.249,1.649c-20.844,0-41.688-0.004-62.533,0c-15.239,0.003-30.478-0.001-45.717-0.002
		c1.645-2.78,3.939-5.35,6.98-6.436c4.64-1.657,9.663,0.457,14.525,1.253c0.486,0.079,1.013,0.14,1.449-0.09
		c0.586-0.309,0.807-1.023,0.96-1.668c0.871-3.682,1.349-7.579,3.383-10.769c3.176-4.982,10.166-7.107,15.577-4.734
		c5.082,2.228,8.044,7.436,11.02,12.12c0.597,0.94,1.236,1.899,2.173,2.499C426.607,396.413,427.482,396.301,428.264,395.84z"/>
</g>
<g id="Characters">
	<g>
		<polygon style="fill:#FFFFFF;stroke:#263238;stroke-miterlimit:10;" points="296.105,245.142 298.221,235.501 320.443,242.203 
			321.031,247.494 		"/>
		<path style="fill:#FFFFFF;stroke:#263238;stroke-miterlimit:10;" d="M309.678,203.349c0,0-6.486,0.393-10.81,5.7
			c-4.324,5.307-3.341,15.134-3.341,15.134s-1.179,1.376-1.572,4.127c-0.393,2.752-0.393,6.289,0.393,6.486
			c0.786,0.196,1.965,0.983,1.965,0.983s3.189,9.318,7.316,11.48c4.127,2.162,10.806,3.103,14.344,0.941
			c3.538-2.162,7.232-10.848,7.232-10.848s2.948-0.59,3.538-3.931c0.59-3.341-0.197-6.486-0.197-6.486s3.341-8.845,0-15.33
			C325.205,205.118,317.147,203.938,309.678,203.349z"/>
		<path style="fill:#263238;stroke:#263238;stroke-miterlimit:10;" d="M328.546,211.604c-3.341-6.486-11.399-7.665-18.868-8.255
			c0,0-6.486,0.393-10.81,5.7c-4.324,5.307-3.341,15.134-3.341,15.134s1.376,0.59,1.376,1.376c0,0.786-0.59,6.289,0,5.896
			s1.572-5.503,1.572-5.503s1.376-5.896,3.538-8.255c2.162-2.358-2.948-4.717,1.179-6.486c4.127-1.769,11.4,4.324,14.151,3.734
			c2.752-0.59,4.128-1.965,5.896-1.769c1.769,0.197,4.324,4.127,4.324,7.076c0,2.948-0.983,4.521-0.786,6.289
			c0.197,1.769-1.179,7.076-0.983,7.665s2.752-7.272,2.752-7.272s0.147-0.462,0.374-1.159
			C329.687,223.18,331.161,216.679,328.546,211.604z"/>
		<g>
			<path style="fill:#92E3A9;stroke:#263238;stroke-miterlimit:10;" d="M313.216,223.593c0,0-6.879-3.145-9.631-2.162
				c-2.752,0.983-3.341,4.52-2.162,7.862c1.179,3.341,5.896,3.145,8.648,1.965C312.823,230.079,314.788,227.131,313.216,223.593z"/>
			<path style="fill:#92E3A9;stroke:#263238;stroke-miterlimit:10;" d="M325.957,226.226c0,0-6.451-2.24-8.417-1.651
				c-1.966,0.59-3.41,4.7-1.007,7.749c3.139,3.984,7.494,3.247,8.87,1.478S328.708,226.816,325.957,226.226z"/>
			<line style="fill:none;stroke:#263238;stroke-miterlimit:10;" x1="317.54" y1="224.576" x2="313.216" y2="223.593"/>
			<line style="fill:none;stroke:#263238;stroke-miterlimit:10;" x1="303.585" y1="221.431" x2="297.1" y2="223.789"/>
		</g>
		<path style="fill:none;stroke:#263238;stroke-miterlimit:10;" d="M315.622,233.267c0,0-1.411,1.058-2.469,1.058
			s-2.116-1.411-2.116-1.411"/>
		<path style="fill:#FFFFFF;stroke:#263238;stroke-miterlimit:10;" d="M318.327,237.735c0,0-8.465,3.41-12.463-3.292"/>
	</g>
	<g>
		<g>
			<path style="fill:#FFFFFF;stroke:#263238;stroke-miterlimit:10;" d="M243.215,156.865c0,0,30.442-44.542,31.244-46.465
				c0.801-1.923,4.326-4.006,6.409-4.646c2.083-0.641,9.293,0,10.254-0.32c0.961-0.32,4.807-2.724,5.287-1.282
				c0.481,1.442-0.481,2.243-1.442,2.724c-0.961,0.481-5.928,1.602-5.928,1.602l10.414,2.563l5.127,0.481
				c0,0,3.365-2.083,2.403-0.641c-0.961,1.442-4.166,3.685-7.531,4.326c-3.365,0.641-17.785-1.282-19.227-0.32
				c-1.442,0.961-2.403,2.403-2.884,3.205c-0.481,0.801-9.293,20.989-14.1,28.039c-4.807,7.05-10.575,17.785-10.575,17.785
				L243.215,156.865z"/>
			<path style="fill:#FFFFFF;stroke:#263238;stroke-miterlimit:10;" d="M280.067,111.201c0,0,4.486-1.442,5.448-1.282
				c0.961,0.16,8.332,2.563,8.332,2.563s5.608-4.646,4.807-3.044c-0.801,1.602-2.724,4.166-3.685,4.646
				c-0.961,0.481-2.884,0.961-6.569,1.121c-3.685,0.16-8.011-1.602-8.011-1.602"/>
		</g>
		<g>
			<path style="fill:#FFFFFF;stroke:#263238;stroke-miterlimit:10;" d="M161.822,156.865c0,0-30.443-44.542-31.244-46.465
				c-0.801-1.923-4.326-4.006-6.409-4.646c-2.083-0.641-9.293,0-10.254-0.32c-0.961-0.32-4.807-2.724-5.287-1.282
				c-0.481,1.442,0.481,2.243,1.442,2.724c0.961,0.481,5.928,1.602,5.928,1.602l-10.415,2.563l-5.127,0.481
				c0,0-3.365-2.083-2.403-0.641c0.961,1.442,4.166,3.685,7.53,4.326c3.365,0.641,17.785-1.282,19.227-0.32
				c1.442,0.961,2.403,2.403,2.884,3.205c0.481,0.801,9.293,20.989,14.1,28.039c4.807,7.05,10.575,17.785,10.575,17.785
				L161.822,156.865z"/>
			<path style="fill:#FFFFFF;stroke:#263238;stroke-miterlimit:10;" d="M124.97,111.201c0,0-4.486-1.442-5.448-1.282
				c-0.961,0.16-8.332,2.563-8.332,2.563s-5.608-4.646-4.807-3.044c0.801,1.602,2.724,4.166,3.685,4.646
				c0.961,0.481,2.884,0.961,6.569,1.121c3.685,0.16,8.011-1.602,8.011-1.602"/>
		</g>
		<path style="fill:#263238;stroke:#263238;stroke-miterlimit:10;" d="M180.087,176.573c0,0-17.464-27.078-23.553-24.514
			s-9.133,15.381-8.332,16.824c0.801,1.442,2.564,3.044,2.724,3.525c0.16,0.481,0.641,5.448,2.083,6.89
			c1.442,1.442,14.26,15.542,14.26,15.542s0.481,16.022,0.801,21.79c0.32,5.768,0.16,15.862,0.16,15.862
			s-10.415,17.785-10.575,18.265c-0.16,0.481,64.891-4.486,64.891-4.486s0-19.387,0-20.509c0-1.122,8.171-24.514,8.171-24.514
			s14.741-17.304,15.542-18.746c0.801-1.442,1.923-5.768,1.923-5.768s1.442-3.525,1.442-4.006s-12.177-7.37-12.658-7.37
			c-0.481,0-3.685,1.763-4.967,3.525c-1.282,1.762-3.685,5.287-3.685,5.287l-4.967,2.083l-13.299,5.768l-23.393-1.762
			L180.087,176.573z"/>
		<path style="fill:none;stroke:#858585;stroke-miterlimit:10;" d="M187.736,187.038c0,0-0.19,4.944-0.571,6.085
			c-0.38,1.141-2.282,4.944-3.613,10.269c-1.331,5.325,2.852,1.141,3.613-0.38c0.761-1.521,2.472-4.754,3.043-4.754
			s4.374,5.705,4.374,5.705s3.993-4.944,5.134-4.754c1.141,0.19,0.19,5.705,2.662,8.367c2.472,2.662,2.852-1.331,2.662-3.043
			c-0.19-1.712,1.141-11.98,2.092-15.784"/>
		<path style="fill:#FFFFFF;stroke:#263238;stroke-miterlimit:10;" d="M189.827,184.376c0,0,0.38,4.944,1.331,7.036
			c0.951,2.092,3.803,8.938,3.803,8.938s7.036-10.459,8.367-13.692c1.331-3.233,3.195-11.207,3.195-11.207L189.827,184.376z"/>
		<path style="fill:#858585;stroke:#263238;stroke-miterlimit:10;" d="M194.988,145.81c0,0-7.05-0.801-10.575,3.204
			c-3.525,4.006-1.442,7.53-3.205,10.254c-1.762,2.724-2.403,0.16-5.287,0.801c-2.884,0.641-6.569,5.448-4.486,9.613
			s4.006,2.724,4.006,2.724s-4.166-2.564-0.961-4.326c3.204-1.762,4.486,1.122,2.724,2.724c-1.762,1.602-2.243,5.768,1.282,8.812
			c3.525,3.044,9.293,3.845,9.293,3.845s14.741-0.641,15.702-2.243c0.961-1.602,4.166-0.641,3.204,1.442
			c-0.961,2.083-4.807,12.017-2.403,14.42c2.403,2.403,5.768,1.442,5.608,4.006c-0.16,2.564-3.044,7.05,2.083,9.613
			c5.127,2.564,7.21-0.481,7.21-0.481s-4.967,1.122-5.928-3.044c-0.961-4.166,4.166-10.415,6.89-6.89s-1.602,4.646,1.442,8.812
			c3.044,4.166,12.017,0.961,12.337,4.006c0.32,3.044-1.923,5.127,0,6.569s6.249-1.442,6.249-1.442s-5.287-0.801-4.807-3.204
			c0.481-2.403,2.083-4.807,0.801-7.691c-1.282-2.884-5.127-4.486-5.448-6.089c-0.32-1.602-2.243-10.895,2.724-12.658
			c4.967-1.762,7.37-7.531,2.403-12.017c-4.967-4.486-7.05-0.961-10.254-4.807c-3.204-3.845,3.204-1.442,4.486-3.525
			c1.282-2.083-0.16-4.486-0.16-4.486s0.801,1.923-2.083,1.762c-2.884-0.16-4.166,0.961-6.249-6.249
			c-2.083-7.21-3.525-12.177-12.017-15.061C201.077,141.324,194.988,145.81,194.988,145.81z"/>
		<g>
			<path style="fill:#FFFFFF;stroke:#263238;stroke-miterlimit:10;" d="M190.822,150.777c0,0-3.685,1.923-5.768,5.608
				c-2.083,3.685-1.923,6.729-1.923,7.691c0,0.961-1.602,3.204-1.602,7.05c0,3.845,0.801,11.376,2.243,13.459
				c1.442,2.083,5.127,1.122,8.011,0.32c2.884-0.801,10.254-2.564,11.696-3.685c1.442-1.122,3.044-5.768,3.044-5.768
				s3.845-2.403,4.646-4.807c0.801-2.403,0.961-5.127-0.801-4.967c-1.762,0.16-4.166,3.204-4.166,3.204s0.481-1.762-0.801-3.685
				c-1.282-1.923-4.807-2.884-8.492-8.652c-3.685-5.768-3.845-6.729-3.845-6.729L190.822,150.777z"/>
			<path style="fill:none;stroke:#263238;stroke-miterlimit:10;" d="M184.093,161.351c0,0,1.121,0.641,1.121,2.083
				c0,1.442-3.845,5.448-3.204,6.569c0.641,1.122,3.204,1.602,4.166,1.282"/>
			<path style="fill:none;stroke:#263238;stroke-miterlimit:10;" d="M183.772,174.81c0,0,4.967,2.083,9.293-1.762
				c0,0-2.564,2.563-5.608,4.006C184.413,178.495,183.772,174.81,183.772,174.81z"/>
			<path style="fill:none;stroke:#263238;stroke-miterlimit:10;" d="M189.06,159.909c0,0,3.365-2.724,5.768-0.32"/>
			<path style="fill:none;stroke:#263238;stroke-miterlimit:10;" d="M190.822,162.633l-0.481,2.083c0,0,2.083,0.961,3.845-0.16"/>
		</g>
		<path style="fill:#858585;stroke:#263238;stroke-miterlimit:10;" d="M240.972,155.583c0,0-4.807,6.409-6.089,8.972
			c-1.282,2.564,2.403,8.812,6.569,10.895c4.166,2.083,9.133,2.243,9.613,1.282c0.481-0.961,0.961-3.845,1.762-4.006
			c0.801-0.16,3.365-1.282,3.365-7.05c0-5.768-0.481-3.845-4.486-5.928S242.895,151.578,240.972,155.583z"/>
		<path style="fill:#858585;stroke:#263238;stroke-miterlimit:10;" d="M154.772,147.893c0,0-8.011,5.608-10.895,9.293
			c-2.884,3.685-2.724,5.287-1.282,7.531c1.442,2.243,3.525,4.166,4.807,2.564c1.282-1.602,9.613-7.53,11.857-8.492
			c2.243-0.961,5.127-0.961,4.807-3.845c-0.32-2.884-4.646-5.448-5.608-7.05C157.496,146.29,156.695,147.092,154.772,147.893z"/>
	</g>
	<g>
		<g>
			<path style="fill:#263238;" d="M308.739,298.377c-18.004,0-32.652-13.452-32.652-29.987c0-16.535,14.648-29.987,32.652-29.987
				s32.653,13.452,32.653,29.987C341.392,284.925,326.743,298.377,308.739,298.377z M308.739,242.403
				c-15.799,0-28.652,11.657-28.652,25.986s12.853,25.987,28.652,25.987c15.799,0,28.653-11.658,28.653-25.987
				S324.538,242.403,308.739,242.403z"/>
		</g>
		<g>
			<path style="fill:#858585;stroke:#263238;stroke-miterlimit:10;" d="M356.577,252.369c0,0-4.928-5.257-6.9-5.585
				c-1.971-0.329-34.497-8.542-59.138-9.528c-24.641-0.986-39.097,4.928-37.783,5.585c1.314,0.657,7.885-2.3,25.955-1.314
				c18.07,0.986,30.555,2.957,33.84,2.3c3.285-0.657,8.871,0,12.813,0c3.943,0,20.041,6.571,20.041,6.571l3.943,0.657"/>
			<path style="fill:#858585;stroke:#263238;stroke-miterlimit:10;" d="M251.057,243.875c0,0-5.569-4.573-7.566-4.643
				c-1.997-0.07-35.314-3.993-59.875-1.773s-38.127,9.96-36.739,10.441c1.388,0.481,7.52-3.304,25.565-4.671
				c18.045-1.368,30.68-1.033,33.853-2.111c3.172-1.078,8.796-1.151,12.705-1.663c3.909-0.512,20.725,3.915,20.725,3.915l3.994,0.14
				"/>
		</g>
		<g>
			<path style="fill:#263238;stroke:#263238;stroke-miterlimit:10;" d="M105.852,405.587h99.794c0,0,1.564,5.944,5.631,6.257
				c4.067,0.313,5.318-3.441,5.318-3.441s1.564,2.816,5.005,2.816c3.441,0,4.38-3.128,4.38-3.128s0.313,4.693,4.067,4.067
				c3.754-0.626,3.754-5.005,3.754-5.005h8.447c0,0,2.503,3.128,5.944,2.19c3.441-0.939,4.693-2.503,4.693-2.503h10.949
				c0,0,1.877,5.631,4.067,5.944c2.19,0.313,4.38-3.754,4.38-3.754s1.877,3.754,5.631,2.815c3.754-0.938,5.631-2.815,5.631-2.815
				s1.564,3.754,4.38,3.128c2.816-0.626,4.38-5.318,4.38-5.318h106.364v-33.473H103.662L105.852,405.587z"/>
			<path style="fill:#263238;stroke:#263238;stroke-miterlimit:10;" d="M98.416,443.933H77.911c-5.448,0-9.865-4.417-9.865-9.865
				v-62.031c0-7.437,6.029-13.465,13.465-13.465h13.304c7.437,0,13.465,6.029,13.465,13.465v62.031
				C108.281,439.516,103.864,443.933,98.416,443.933z"/>
			<path style="fill:#263238;stroke:#263238;stroke-miterlimit:10;" d="M422.023,443.933h-20.505c-5.448,0-9.865-4.417-9.865-9.865
				v-62.031c0-7.437,6.029-13.465,13.465-13.465h13.304c7.437,0,13.465,6.029,13.465,13.465v62.031
				C431.888,439.516,427.471,443.933,422.023,443.933z"/>
			<g>
				<path style="fill:#263238;stroke:#263238;stroke-miterlimit:10;" d="M120.145,236.618c0,0-12.084,0.318-15.582,3.18
					c-3.498,2.862-2.544,10.494-1.272,11.766c1.272,1.272,11.448,2.862,16.854,1.272s8.268-7.95,6.36-11.766
					C124.596,237.254,122.37,236.3,120.145,236.618z"/>
				<path style="fill:#7A7A7A;stroke:#263238;stroke-miterlimit:10;" d="M116.937,242.004c0,0-4.021-0.575-4.74,2.298
					c-0.718,2.873,0.287,8.618,0.718,10.054c0.431,1.436,1.005,2.585,1.436,2.585c0.431,0,2.154-0.574,1.867-1.436
					c-0.287-0.862-1.723-4.165-1.436-7.325c0.287-3.16,1.293-2.872,1.293-2.872s2.154,0.287,2.585-1.293
					C119.091,242.435,116.937,242.004,116.937,242.004z"/>
			</g>
			<g>
				<path style="fill:#263238;stroke:#263238;stroke-miterlimit:10;" d="M399.299,240.162c0,0,12.084,0.318,15.582,3.18
					c3.498,2.862,2.544,10.494,1.272,11.766c-1.272,1.272-11.448,2.862-16.854,1.272c-5.406-1.59-8.268-7.95-6.36-11.766
					C394.847,240.798,397.073,239.844,399.299,240.162z"/>
				<path style="fill:#7A7A7A;stroke:#263238;stroke-miterlimit:10;" d="M402.507,245.548c0,0,4.022-0.575,4.74,2.298
					c0.718,2.872-0.287,8.618-0.718,10.054c-0.431,1.436-1.005,2.585-1.436,2.585c-0.431,0-2.154-0.575-1.867-1.436
					c0.287-0.862,1.723-4.165,1.436-7.325c-0.287-3.16-1.293-2.872-1.293-2.872s-2.154,0.287-2.585-1.293
					C400.353,245.979,402.507,245.548,402.507,245.548z"/>
			</g>
			<path style="fill:#92E3A9;stroke:#263238;stroke-miterlimit:10;" d="M443.442,294.268c-2.356-15.186-9.164-27.491-21.731-35.608
				c-12.567-8.116-23.04-5.76-28.015-3.927c-4.975,1.833-9.949,1.571-11.52,0.524s-15.186-52.102-19.637-58.124
				c-4.451-6.022-8.64-8.117-22.255-10.735c-13.615-2.618-55.244-6.284-89.543-6.284s-65.194,1.047-98.707,10.211
				c0,0-11.258,4.713-13.615,12.568s-15.186,50.27-15.186,50.27s-8.378,3.142-12.567,2.094c-4.189-1.047-12.567-5.76-23.04-3.927
				c-10.473,1.833-25.397,15.447-28.539,22.255c-3.142,6.807-2.618,33.251-2.356,40.582c0.262,7.331,3.404,50.151,3.404,50.151
				l377.285,0.785C437.42,365.104,445.799,309.454,443.442,294.268z M263.309,243.737c-62.837-1.047-127.769,7.593-127.769,7.593
				s8.378-37.964,11.52-44.248c3.142-6.284,9.949-8.378,9.949-8.378c41.368-11.52,116.772-9.687,139.027-8.64
				s56.03,6.546,61.266,12.567c5.236,6.022,15.447,51.055,15.447,51.055S326.146,244.784,263.309,243.737z"/>
			<g>
				
					<ellipse transform="matrix(0.921 -0.3895 0.3895 0.921 -82.0615 183.5725)" style="fill:#FFFFFF;stroke:#263238;stroke-miterlimit:10;" cx="411.631" cy="294.137" rx="28.931" ry="28.931"/>
				<circle style="fill:#FFFFFF;stroke:#263238;stroke-miterlimit:10;" cx="411.631" cy="294.137" r="22.97"/>
				<circle style="fill:#FFFFFF;stroke:#263238;stroke-miterlimit:10;" cx="411.631" cy="294.137" r="4.912"/>
				<g>
					<line style="fill:#FFFFFF;stroke:#263238;stroke-miterlimit:10;" x1="399.057" y1="280.661" x2="399.057" y2="305.194"/>
					<line style="fill:#FFFFFF;stroke:#263238;stroke-miterlimit:10;" x1="402.441" y1="277.83" x2="402.441" y2="308.025"/>
					<line style="fill:#FFFFFF;stroke:#263238;stroke-miterlimit:10;" x1="405.825" y1="276.638" x2="405.825" y2="309.217"/>
					<line style="fill:#FFFFFF;stroke:#263238;stroke-miterlimit:10;" x1="409.209" y1="274.424" x2="409.209" y2="311.43"/>
					<line style="fill:#FFFFFF;stroke:#263238;stroke-miterlimit:10;" x1="412.593" y1="274.424" x2="412.593" y2="311.43"/>
					<line style="fill:#FFFFFF;stroke:#263238;stroke-miterlimit:10;" x1="415.977" y1="276.638" x2="415.977" y2="309.217"/>
					<line style="fill:#FFFFFF;stroke:#263238;stroke-miterlimit:10;" x1="419.361" y1="277.83" x2="419.361" y2="308.025"/>
					<line style="fill:#FFFFFF;stroke:#263238;stroke-miterlimit:10;" x1="422.744" y1="280.661" x2="422.744" y2="305.194"/>
					<line style="fill:#FFFFFF;stroke:#263238;stroke-miterlimit:10;" x1="426.15" y1="282.938" x2="426.15" y2="302.917"/>
					<line style="fill:#FFFFFF;stroke:#263238;stroke-miterlimit:10;" x1="395.671" y1="282.938" x2="395.671" y2="302.917"/>
				</g>
			</g>
			<g>
				
					<ellipse transform="matrix(0.1593 -0.9872 0.9872 0.1593 7.358 694.8361)" style="fill:#FFFFFF;stroke:#263238;stroke-miterlimit:10;" cx="411.631" cy="343.098" rx="18.72" ry="18.72"/>
				<circle style="fill:#FFFFFF;stroke:#263238;stroke-miterlimit:10;" cx="411.631" cy="343.098" r="14.863"/>
				<circle style="fill:#FFFFFF;stroke:#263238;stroke-miterlimit:10;" cx="411.631" cy="343.098" r="3.178"/>
			</g>
			<g>
				
					<ellipse transform="matrix(0.6117 -0.7911 0.7911 0.6117 -196.9737 181.7372)" style="fill:#FFFFFF;stroke:#263238;stroke-miterlimit:10;" cx="86.643" cy="291.519" rx="28.931" ry="28.931"/>
				<circle style="fill:#FFFFFF;stroke:#263238;stroke-miterlimit:10;" cx="86.643" cy="291.519" r="22.97"/>
				<circle style="fill:#FFFFFF;stroke:#263238;stroke-miterlimit:10;" cx="86.643" cy="291.519" r="4.912"/>
				<g>
					<line style="fill:#FFFFFF;stroke:#263238;stroke-miterlimit:10;" x1="73.586" y1="280.661" x2="73.586" y2="305.194"/>
					<line style="fill:#FFFFFF;stroke:#263238;stroke-miterlimit:10;" x1="76.969" y1="277.83" x2="76.969" y2="308.025"/>
					<line style="fill:#FFFFFF;stroke:#263238;stroke-miterlimit:10;" x1="80.353" y1="276.638" x2="80.353" y2="309.217"/>
					<line style="fill:#FFFFFF;stroke:#263238;stroke-miterlimit:10;" x1="83.737" y1="274.424" x2="83.737" y2="311.43"/>
					<line style="fill:#FFFFFF;stroke:#263238;stroke-miterlimit:10;" x1="87.121" y1="274.424" x2="87.121" y2="311.43"/>
					<line style="fill:#FFFFFF;stroke:#263238;stroke-miterlimit:10;" x1="90.505" y1="276.638" x2="90.505" y2="309.217"/>
					<line style="fill:#FFFFFF;stroke:#263238;stroke-miterlimit:10;" x1="93.888" y1="277.83" x2="93.888" y2="308.025"/>
					<line style="fill:#FFFFFF;stroke:#263238;stroke-miterlimit:10;" x1="97.272" y1="280.661" x2="97.272" y2="305.194"/>
					<line style="fill:#FFFFFF;stroke:#263238;stroke-miterlimit:10;" x1="100.678" y1="282.938" x2="100.678" y2="302.917"/>
					<line style="fill:#FFFFFF;stroke:#263238;stroke-miterlimit:10;" x1="70.199" y1="282.938" x2="70.199" y2="302.917"/>
				</g>
			</g>
			<g>
				<circle style="fill:#FFFFFF;stroke:#263238;stroke-miterlimit:10;" cx="86.643" cy="340.48" r="18.72"/>
				<circle style="fill:#FFFFFF;stroke:#263238;stroke-miterlimit:10;" cx="86.643" cy="340.48" r="14.863"/>
				<circle style="fill:#FFFFFF;stroke:#263238;stroke-miterlimit:10;" cx="86.643" cy="340.48" r="3.178"/>
			</g>
			<path style="fill:#263238;stroke:#263238;stroke-miterlimit:10;" d="M248.008,291.057c-5.526,0-11.051,0.278-16.537,0.836
				l-7.46,0.759c-7.639,0.776-13.399,7-13.399,14.477v35.22c0,7.776,6.25,14.162,14.229,14.538l13.151,0.62
				c6.368,0.3,12.824,0.31,19.184,0.03l16.013-0.701c8.007-0.35,14.279-6.737,14.279-14.54v-35.042
				c0-7.541-5.815-13.77-13.526-14.489l-10.756-1.003C258.15,291.292,253.079,291.057,248.008,291.057z"/>
			<path style="fill:#FFFFFF;" d="M286.354,301.724c-0.388-0.927-0.876-1.801-1.444-2.621v1.621h-2.439v-2.821h1.511
				c-0.299-0.348-0.614-0.681-0.945-1h-0.566v-0.525c-0.321-0.278-0.654-0.545-1-0.796v1.32h-2.439v-2.753
				c-0.993-0.465-2.051-0.823-3.16-1.069h-0.279v-0.065c-0.328-0.066-0.663-0.115-1-0.161v0.227h-2.439v-0.484l-1-0.093v0.577
				h-2.439v-0.805l-1-0.093v0.898h-2.439v-1.125l-1-0.093v1.219h-2.439v-1.43c-0.333-0.028-0.667-0.055-1-0.082v1.512h-2.439v-1.687
				c-0.333-0.021-0.667-0.039-1-0.058v1.745h-2.439v-1.871c-0.333-0.014-0.667-0.023-1-0.035v1.906h-2.439v-1.984
				c-0.333-0.007-0.667-0.006-1-0.012v1.995h-2.439v-2.023c-0.024,0-0.048-0.001-0.072-0.001c-0.309,0-0.618,0.01-0.928,0.012v2.013
				h-2.439V291.1c-0.333,0.007-0.667,0.009-1,0.018v1.964h-2.439v-1.871c-0.333,0.014-0.667,0.022-1,0.038v1.834h-2.439v-1.691
				c-0.333,0.021-0.667,0.04-1,0.063v1.628h-2.439v-1.442c-0.334,0.028-0.667,0.059-1,0.089v1.353h-2.439v-1.129l-1,0.102v1.027
				h-2.439v-0.779l-1,0.102v0.677h-2.439v-0.429c-0.339,0.035-0.669,0.092-1,0.148v0.281h-1.318c-0.961,0.249-1.882,0.583-2.752,1
				h0.63v2.821h-2.439v-1.789c-0.344,0.229-0.678,0.469-1,0.724v1.065h-1.201c-0.324,0.319-0.632,0.653-0.925,1h2.126v2.821h-2.439
				v-2.451c-0.364,0.462-0.695,0.948-1,1.452v1h-0.559c-0.164,0.327-0.316,0.66-0.455,1h1.014v2.821h-1.838
				c-0.06,0.33-0.108,0.663-0.145,1h1.983v2.821h-2.078v1h2.078v2.821h-2.078v1h2.078v2.821h-2.078v1h2.078v2.82h-2.078v1h2.078
				v2.821h-2.078v1h2.078v2.821h-2.078v1h2.078v2.821h-2.078v1h2.078v2.821h-2.078v1h2.078v2.821h-2.078v1h2.078v2.82h-2.058
				c0.009,0.335,0.018,0.671,0.05,1h2.008v2.821h-1.437c0.106,0.34,0.232,0.671,0.362,1h1.075v2.155
				c0.351,0.58,0.73,1.142,1.159,1.667h2.28v2.23c0.766,0.607,1.594,1.139,2.477,1.591h0.962v0.455c0.329,0.14,0.659,0.28,1,0.397
				v-0.852h2.439v1.457c0.329,0.055,0.663,0.096,1,0.13v-1.587h2.439v1.742l1,0.047v-1.789h2.439v1.904l1,0.047v-1.951h2.439v2.066
				l1,0.047v-2.113h2.439v2.228l1,0.047v-2.275h2.439v2.365c0.333,0.012,0.666,0.025,1,0.036v-2.4h2.439v2.468
				c0.333,0.007,0.667,0.008,1,0.013v-2.48h2.439v2.512c0.334,0.001,0.667,0.002,1,0.002v-2.514h2.439v2.49
				c0.333-0.004,0.667-0.004,1-0.01v-2.48h2.439v2.421c0.334-0.01,0.667-0.021,1-0.032v-2.388h2.439v2.307l1-0.044v-2.263h2.439
				v2.156l1-0.044v-2.112h2.439v2.006l1-0.044v-1.962h2.439v1.855l1-0.044v-1.811h2.439v1.704l1-0.044v-1.661h2.439v1.487
				c0.339-0.046,0.669-0.114,1-0.181v-1.306h2.439v0.595c0.339-0.131,0.674-0.267,1-0.42v-0.174h0.344
				c0.596-0.3,1.174-0.628,1.719-1h-2.064v-2.821h2.439v2.551c0.345-0.251,0.68-0.513,1-0.792v-1.759h1.72
				c0.668-0.812,1.241-1.699,1.719-2.64v-1.181h0.537c0.131-0.329,0.256-0.66,0.363-1h-0.9v-2.821h1.483
				c0.034-0.329,0.041-0.665,0.052-1h-1.535v-2.82h1.558v-1h-1.558v-2.821h1.558v-1h-1.558v-2.821h1.558v-1h-1.558v-2.821h1.558v-1
				h-1.558v-2.821h1.558v-1h-1.558v-2.821h1.558v-1h-1.558v-2.82h1.558v-1h-1.558v-2.821h1.558v-1h-1.558v-2.821h1.558v-1h-1.558
				v-2.821h1.446c-0.04-0.336-0.082-0.671-0.145-1h-1.301v-2.821H286.354z M216.129,350.399h-2.439v-2.821h2.439V350.399z
				 M216.129,346.578h-2.439v-2.821h2.439V346.578z M216.129,342.757h-2.439v-2.82h2.439V342.757z M216.129,338.936h-2.439v-2.821
				h2.439V338.936z M216.129,335.115h-2.439v-2.821h2.439V335.115z M216.129,331.294h-2.439v-2.821h2.439V331.294z M216.129,327.472
				h-2.439v-2.821h2.439V327.472z M216.129,323.651h-2.439v-2.821h2.439V323.651z M216.129,319.83h-2.439v-2.82h2.439V319.83z
				 M216.129,316.01h-2.439v-2.821h2.439V316.01z M216.129,312.188h-2.439v-2.821h2.439V312.188z M216.129,308.367h-2.439v-2.821
				h2.439V308.367z M216.129,304.546h-2.439v-2.821h2.439V304.546z M219.568,354.22h-2.439v-2.821h2.439V354.22z M219.568,350.399
				h-2.439v-2.821h2.439V350.399z M219.568,346.578h-2.439v-2.821h2.439V346.578z M219.568,342.757h-2.439v-2.82h2.439V342.757z
				 M219.568,338.936h-2.439v-2.821h2.439V338.936z M219.568,335.115h-2.439v-2.821h2.439V335.115z M219.568,331.294h-2.439v-2.821
				h2.439V331.294z M219.568,327.472h-2.439v-2.821h2.439V327.472z M219.568,323.651h-2.439v-2.821h2.439V323.651z M219.568,319.83
				h-2.439v-2.82h2.439V319.83z M219.568,316.01h-2.439v-2.821h2.439V316.01z M219.568,312.188h-2.439v-2.821h2.439V312.188z
				 M219.568,308.367h-2.439v-2.821h2.439V308.367z M219.568,304.546h-2.439v-2.821h2.439V304.546z M219.568,300.724h-2.439v-2.821
				h2.439V300.724z M223.007,354.22h-2.439v-2.821h2.439V354.22z M223.007,350.399h-2.439v-2.821h2.439V350.399z M223.007,346.578
				h-2.439v-2.821h2.439V346.578z M223.007,342.757h-2.439v-2.82h2.439V342.757z M223.007,338.936h-2.439v-2.821h2.439V338.936z
				 M223.007,335.115h-2.439v-2.821h2.439V335.115z M223.007,331.294h-2.439v-2.821h2.439V331.294z M223.007,327.472h-2.439v-2.821
				h2.439V327.472z M223.007,323.651h-2.439v-2.821h2.439V323.651z M223.007,319.83h-2.439v-2.82h2.439V319.83z M223.007,316.01
				h-2.439v-2.821h2.439V316.01z M223.007,312.188h-2.439v-2.821h2.439V312.188z M223.007,308.367h-2.439v-2.821h2.439V308.367z
				 M223.007,304.546h-2.439v-2.821h2.439V304.546z M223.007,300.724h-2.439v-2.821h2.439V300.724z M223.007,296.903h-2.439v-2.821
				h2.439V296.903z M226.446,354.22h-2.439v-2.821h2.439V354.22z M226.446,350.399h-2.439v-2.821h2.439V350.399z M226.446,346.578
				h-2.439v-2.821h2.439V346.578z M226.446,342.757h-2.439v-2.82h2.439V342.757z M226.446,338.936h-2.439v-2.821h2.439V338.936z
				 M226.446,335.115h-2.439v-2.821h2.439V335.115z M226.446,331.294h-2.439v-2.821h2.439V331.294z M226.446,327.472h-2.439v-2.821
				h2.439V327.472z M226.446,323.651h-2.439v-2.821h2.439V323.651z M226.446,319.83h-2.439v-2.82h2.439V319.83z M226.446,316.01
				h-2.439v-2.821h2.439V316.01z M226.446,312.188h-2.439v-2.821h2.439V312.188z M226.446,308.367h-2.439v-2.821h2.439V308.367z
				 M226.446,304.546h-2.439v-2.821h2.439V304.546z M226.446,300.724h-2.439v-2.821h2.439V300.724z M226.446,296.903h-2.439v-2.821
				h2.439V296.903z M229.885,354.22h-2.439v-2.821h2.439V354.22z M229.885,350.399h-2.439v-2.821h2.439V350.399z M229.885,346.578
				h-2.439v-2.821h2.439V346.578z M229.885,342.757h-2.439v-2.82h2.439V342.757z M229.885,338.936h-2.439v-2.821h2.439V338.936z
				 M229.885,335.115h-2.439v-2.821h2.439V335.115z M229.885,331.294h-2.439v-2.821h2.439V331.294z M229.885,327.472h-2.439v-2.821
				h2.439V327.472z M229.885,323.651h-2.439v-2.821h2.439V323.651z M229.885,319.83h-2.439v-2.82h2.439V319.83z M229.885,316.01
				h-2.439v-2.821h2.439V316.01z M229.885,312.188h-2.439v-2.821h2.439V312.188z M229.885,308.367h-2.439v-2.821h2.439V308.367z
				 M229.885,304.546h-2.439v-2.821h2.439V304.546z M229.885,300.724h-2.439v-2.821h2.439V300.724z M229.885,296.903h-2.439v-2.821
				h2.439V296.903z M233.324,354.22h-2.439v-2.821h2.439V354.22z M233.324,350.399h-2.439v-2.821h2.439V350.399z M233.324,346.578
				h-2.439v-2.821h2.439V346.578z M233.324,342.757h-2.439v-2.82h2.439V342.757z M233.324,338.936h-2.439v-2.821h2.439V338.936z
				 M233.324,335.115h-2.439v-2.821h2.439V335.115z M233.324,331.294h-2.439v-2.821h2.439V331.294z M233.324,327.472h-2.439v-2.821
				h2.439V327.472z M233.324,323.651h-2.439v-2.821h2.439V323.651z M233.324,319.83h-2.439v-2.82h2.439V319.83z M233.324,316.01
				h-2.439v-2.821h2.439V316.01z M233.324,312.188h-2.439v-2.821h2.439V312.188z M233.324,308.367h-2.439v-2.821h2.439V308.367z
				 M233.324,304.546h-2.439v-2.821h2.439V304.546z M233.324,300.724h-2.439v-2.821h2.439V300.724z M233.324,296.903h-2.439v-2.821
				h2.439V296.903z M236.763,354.22h-2.439v-2.821h2.439V354.22z M236.763,350.399h-2.439v-2.821h2.439V350.399z M236.763,346.578
				h-2.439v-2.821h2.439V346.578z M236.763,342.757h-2.439v-2.82h2.439V342.757z M236.763,338.936h-2.439v-2.821h2.439V338.936z
				 M236.763,335.115h-2.439v-2.821h2.439V335.115z M236.763,331.294h-2.439v-2.821h2.439V331.294z M236.763,327.472h-2.439v-2.821
				h2.439V327.472z M236.763,323.651h-2.439v-2.821h2.439V323.651z M236.763,319.83h-2.439v-2.82h2.439V319.83z M236.763,316.01
				h-2.439v-2.821h2.439V316.01z M236.763,312.188h-2.439v-2.821h2.439V312.188z M236.763,308.367h-2.439v-2.821h2.439V308.367z
				 M236.763,304.546h-2.439v-2.821h2.439V304.546z M236.763,300.724h-2.439v-2.821h2.439V300.724z M236.763,296.903h-2.439v-2.821
				h2.439V296.903z M240.202,354.22h-2.439v-2.821h2.439V354.22z M240.202,350.399h-2.439v-2.821h2.439V350.399z M240.202,346.578
				h-2.439v-2.821h2.439V346.578z M240.202,342.757h-2.439v-2.82h2.439V342.757z M240.202,338.936h-2.439v-2.821h2.439V338.936z
				 M240.202,335.115h-2.439v-2.821h2.439V335.115z M240.202,331.294h-2.439v-2.821h2.439V331.294z M240.202,327.472h-2.439v-2.821
				h2.439V327.472z M240.202,323.651h-2.439v-2.821h2.439V323.651z M240.202,319.83h-2.439v-2.82h2.439V319.83z M240.202,316.01
				h-2.439v-2.821h2.439V316.01z M240.202,312.188h-2.439v-2.821h2.439V312.188z M240.202,308.367h-2.439v-2.821h2.439V308.367z
				 M240.202,304.546h-2.439v-2.821h2.439V304.546z M240.202,300.724h-2.439v-2.821h2.439V300.724z M240.202,296.903h-2.439v-2.821
				h2.439V296.903z M243.641,354.22h-2.439v-2.821h2.439V354.22z M243.641,350.399h-2.439v-2.821h2.439V350.399z M243.641,346.578
				h-2.439v-2.821h2.439V346.578z M243.641,342.757h-2.439v-2.82h2.439V342.757z M243.641,338.936h-2.439v-2.821h2.439V338.936z
				 M243.641,335.115h-2.439v-2.821h2.439V335.115z M243.641,331.294h-2.439v-2.821h2.439V331.294z M243.641,327.472h-2.439v-2.821
				h2.439V327.472z M243.641,323.651h-2.439v-2.821h2.439V323.651z M243.641,319.83h-2.439v-2.82h2.439V319.83z M243.641,316.01
				h-2.439v-2.821h2.439V316.01z M243.641,312.188h-2.439v-2.821h2.439V312.188z M243.641,308.367h-2.439v-2.821h2.439V308.367z
				 M243.641,304.546h-2.439v-2.821h2.439V304.546z M243.641,300.724h-2.439v-2.821h2.439V300.724z M243.641,296.903h-2.439v-2.821
				h2.439V296.903z M247.081,354.22h-2.439v-2.821h2.439V354.22z M247.081,350.399h-2.439v-2.821h2.439V350.399z M247.081,346.578
				h-2.439v-2.821h2.439V346.578z M247.081,342.757h-2.439v-2.82h2.439V342.757z M247.081,338.936h-2.439v-2.821h2.439V338.936z
				 M247.081,335.115h-2.439v-2.821h2.439V335.115z M247.081,331.294h-2.439v-2.821h2.439V331.294z M247.081,327.472h-2.439v-2.821
				h2.439V327.472z M247.081,323.651h-2.439v-2.821h2.439V323.651z M247.081,319.83h-2.439v-2.82h2.439V319.83z M247.081,316.01
				h-2.439v-2.821h2.439V316.01z M247.081,312.188h-2.439v-2.821h2.439V312.188z M247.081,308.367h-2.439v-2.821h2.439V308.367z
				 M247.081,304.546h-2.439v-2.821h2.439V304.546z M247.081,300.724h-2.439v-2.821h2.439V300.724z M247.081,296.903h-2.439v-2.821
				h2.439V296.903z M250.52,354.22h-2.439v-2.821h2.439V354.22z M250.52,350.399h-2.439v-2.821h2.439V350.399z M250.52,346.578
				h-2.439v-2.821h2.439V346.578z M250.52,342.757h-2.439v-2.82h2.439V342.757z M250.52,338.936h-2.439v-2.821h2.439V338.936z
				 M250.52,335.115h-2.439v-2.821h2.439V335.115z M250.52,331.294h-2.439v-2.821h2.439V331.294z M250.52,327.472h-2.439v-2.821
				h2.439V327.472z M250.52,323.651h-2.439v-2.821h2.439V323.651z M250.52,319.83h-2.439v-2.82h2.439V319.83z M250.52,316.01h-2.439
				v-2.821h2.439V316.01z M250.52,312.188h-2.439v-2.821h2.439V312.188z M250.52,308.367h-2.439v-2.821h2.439V308.367z
				 M250.52,304.546h-2.439v-2.821h2.439V304.546z M250.52,300.724h-2.439v-2.821h2.439V300.724z M250.52,296.903h-2.439v-2.821
				h2.439V296.903z M253.959,354.22h-2.439v-2.821h2.439V354.22z M253.959,350.399h-2.439v-2.821h2.439V350.399z M253.959,346.578
				h-2.439v-2.821h2.439V346.578z M253.959,342.757h-2.439v-2.82h2.439V342.757z M253.959,338.936h-2.439v-2.821h2.439V338.936z
				 M253.959,335.115h-2.439v-2.821h2.439V335.115z M253.959,331.294h-2.439v-2.821h2.439V331.294z M253.959,327.472h-2.439v-2.821
				h2.439V327.472z M253.959,323.651h-2.439v-2.821h2.439V323.651z M253.959,319.83h-2.439v-2.82h2.439V319.83z M253.959,316.01
				h-2.439v-2.821h2.439V316.01z M253.959,312.188h-2.439v-2.821h2.439V312.188z M253.959,308.367h-2.439v-2.821h2.439V308.367z
				 M253.959,304.546h-2.439v-2.821h2.439V304.546z M253.959,300.724h-2.439v-2.821h2.439V300.724z M253.959,296.903h-2.439v-2.821
				h2.439V296.903z M257.398,354.22h-2.439v-2.821h2.439V354.22z M257.398,350.399h-2.439v-2.821h2.439V350.399z M257.398,346.578
				h-2.439v-2.821h2.439V346.578z M257.398,342.757h-2.439v-2.82h2.439V342.757z M257.398,338.936h-2.439v-2.821h2.439V338.936z
				 M257.398,335.115h-2.439v-2.821h2.439V335.115z M257.398,331.294h-2.439v-2.821h2.439V331.294z M257.398,327.472h-2.439v-2.821
				h2.439V327.472z M257.398,323.651h-2.439v-2.821h2.439V323.651z M257.398,319.83h-2.439v-2.82h2.439V319.83z M257.398,316.01
				h-2.439v-2.821h2.439V316.01z M257.398,312.188h-2.439v-2.821h2.439V312.188z M257.398,308.367h-2.439v-2.821h2.439V308.367z
				 M257.398,304.546h-2.439v-2.821h2.439V304.546z M257.398,300.724h-2.439v-2.821h2.439V300.724z M257.398,296.903h-2.439v-2.821
				h2.439V296.903z M260.837,354.22h-2.439v-2.821h2.439V354.22z M260.837,350.399h-2.439v-2.821h2.439V350.399z M260.837,346.578
				h-2.439v-2.821h2.439V346.578z M260.837,342.757h-2.439v-2.82h2.439V342.757z M260.837,338.936h-2.439v-2.821h2.439V338.936z
				 M260.837,335.115h-2.439v-2.821h2.439V335.115z M260.837,331.294h-2.439v-2.821h2.439V331.294z M260.837,327.472h-2.439v-2.821
				h2.439V327.472z M260.837,323.651h-2.439v-2.821h2.439V323.651z M260.837,319.83h-2.439v-2.82h2.439V319.83z M260.837,316.01
				h-2.439v-2.821h2.439V316.01z M260.837,312.188h-2.439v-2.821h2.439V312.188z M260.837,308.367h-2.439v-2.821h2.439V308.367z
				 M260.837,304.546h-2.439v-2.821h2.439V304.546z M260.837,300.724h-2.439v-2.821h2.439V300.724z M260.837,296.903h-2.439v-2.821
				h2.439V296.903z M264.275,354.22h-2.439v-2.821h2.439V354.22z M264.275,350.399h-2.439v-2.821h2.439V350.399z M264.275,346.578
				h-2.439v-2.821h2.439V346.578z M264.275,342.757h-2.439v-2.82h2.439V342.757z M264.275,338.936h-2.439v-2.821h2.439V338.936z
				 M264.275,335.115h-2.439v-2.821h2.439V335.115z M264.275,331.294h-2.439v-2.821h2.439V331.294z M264.275,327.472h-2.439v-2.821
				h2.439V327.472z M264.275,323.651h-2.439v-2.821h2.439V323.651z M264.275,319.83h-2.439v-2.82h2.439V319.83z M264.275,316.01
				h-2.439v-2.821h2.439V316.01z M264.275,312.188h-2.439v-2.821h2.439V312.188z M264.275,308.367h-2.439v-2.821h2.439V308.367z
				 M264.275,304.546h-2.439v-2.821h2.439V304.546z M264.275,300.724h-2.439v-2.821h2.439V300.724z M264.275,296.903h-2.439v-2.821
				h2.439V296.903z M267.715,354.22h-2.439v-2.821h2.439V354.22z M267.715,350.399h-2.439v-2.821h2.439V350.399z M267.715,346.578
				h-2.439v-2.821h2.439V346.578z M267.715,342.757h-2.439v-2.82h2.439V342.757z M267.715,338.936h-2.439v-2.821h2.439V338.936z
				 M267.715,335.115h-2.439v-2.821h2.439V335.115z M267.715,331.294h-2.439v-2.821h2.439V331.294z M267.715,327.472h-2.439v-2.821
				h2.439V327.472z M267.715,323.651h-2.439v-2.821h2.439V323.651z M267.715,319.83h-2.439v-2.82h2.439V319.83z M267.715,316.01
				h-2.439v-2.821h2.439V316.01z M267.715,312.188h-2.439v-2.821h2.439V312.188z M267.715,308.367h-2.439v-2.821h2.439V308.367z
				 M267.715,304.546h-2.439v-2.821h2.439V304.546z M267.715,300.724h-2.439v-2.821h2.439V300.724z M267.715,296.903h-2.439v-2.821
				h2.439V296.903z M271.154,354.22h-2.439v-2.821h2.439V354.22z M271.154,350.399h-2.439v-2.821h2.439V350.399z M271.154,346.578
				h-2.439v-2.821h2.439V346.578z M271.154,342.757h-2.439v-2.82h2.439V342.757z M271.154,338.936h-2.439v-2.821h2.439V338.936z
				 M271.154,335.115h-2.439v-2.821h2.439V335.115z M271.154,331.294h-2.439v-2.821h2.439V331.294z M271.154,327.472h-2.439v-2.821
				h2.439V327.472z M271.154,323.651h-2.439v-2.821h2.439V323.651z M271.154,319.83h-2.439v-2.82h2.439V319.83z M271.154,316.01
				h-2.439v-2.821h2.439V316.01z M271.154,312.188h-2.439v-2.821h2.439V312.188z M271.154,308.367h-2.439v-2.821h2.439V308.367z
				 M271.154,304.546h-2.439v-2.821h2.439V304.546z M271.154,300.724h-2.439v-2.821h2.439V300.724z M271.154,296.903h-2.439v-2.821
				h2.439V296.903z M274.593,354.22h-2.439v-2.821h2.439V354.22z M274.593,350.399h-2.439v-2.821h2.439V350.399z M274.593,346.578
				h-2.439v-2.821h2.439V346.578z M274.593,342.757h-2.439v-2.82h2.439V342.757z M274.593,338.936h-2.439v-2.821h2.439V338.936z
				 M274.593,335.115h-2.439v-2.821h2.439V335.115z M274.593,331.294h-2.439v-2.821h2.439V331.294z M274.593,327.472h-2.439v-2.821
				h2.439V327.472z M274.593,323.651h-2.439v-2.821h2.439V323.651z M274.593,319.83h-2.439v-2.82h2.439V319.83z M274.593,316.01
				h-2.439v-2.821h2.439V316.01z M274.593,312.188h-2.439v-2.821h2.439V312.188z M274.593,308.367h-2.439v-2.821h2.439V308.367z
				 M274.593,304.546h-2.439v-2.821h2.439V304.546z M274.593,300.724h-2.439v-2.821h2.439V300.724z M274.593,296.903h-2.439v-2.821
				h2.439V296.903z M278.032,354.22h-2.439v-2.821h2.439V354.22z M278.032,350.399h-2.439v-2.821h2.439V350.399z M278.032,346.578
				h-2.439v-2.821h2.439V346.578z M278.032,342.757h-2.439v-2.82h2.439V342.757z M278.032,338.936h-2.439v-2.821h2.439V338.936z
				 M278.032,335.115h-2.439v-2.821h2.439V335.115z M278.032,331.294h-2.439v-2.821h2.439V331.294z M278.032,327.472h-2.439v-2.821
				h2.439V327.472z M278.032,323.651h-2.439v-2.821h2.439V323.651z M278.032,319.83h-2.439v-2.82h2.439V319.83z M278.032,316.01
				h-2.439v-2.821h2.439V316.01z M278.032,312.188h-2.439v-2.821h2.439V312.188z M278.032,308.367h-2.439v-2.821h2.439V308.367z
				 M278.032,304.546h-2.439v-2.821h2.439V304.546z M278.032,300.724h-2.439v-2.821h2.439V300.724z M278.032,296.903h-2.439v-2.821
				h2.439V296.903z M281.471,350.399h-2.439v-2.821h2.439V350.399z M281.471,346.578h-2.439v-2.821h2.439V346.578z M281.471,342.757
				h-2.439v-2.82h2.439V342.757z M281.471,338.936h-2.439v-2.821h2.439V338.936z M281.471,335.115h-2.439v-2.821h2.439V335.115z
				 M281.471,331.294h-2.439v-2.821h2.439V331.294z M281.471,327.472h-2.439v-2.821h2.439V327.472z M281.471,323.651h-2.439v-2.821
				h2.439V323.651z M281.471,319.83h-2.439v-2.82h2.439V319.83z M281.471,316.01h-2.439v-2.821h2.439V316.01z M281.471,312.188
				h-2.439v-2.821h2.439V312.188z M281.471,308.367h-2.439v-2.821h2.439V308.367z M281.471,304.546h-2.439v-2.821h2.439V304.546z
				 M281.471,300.724h-2.439v-2.821h2.439V300.724z M284.91,350.399h-2.439v-2.821h2.439V350.399z M284.91,346.578h-2.439v-2.821
				h2.439V346.578z M284.91,342.757h-2.439v-2.82h2.439V342.757z M284.91,338.936h-2.439v-2.821h2.439V338.936z M284.91,335.115
				h-2.439v-2.821h2.439V335.115z M284.91,331.294h-2.439v-2.821h2.439V331.294z M284.91,327.472h-2.439v-2.821h2.439V327.472z
				 M284.91,323.651h-2.439v-2.821h2.439V323.651z M284.91,319.83h-2.439v-2.82h2.439V319.83z M284.91,316.01h-2.439v-2.821h2.439
				V316.01z M284.91,312.188h-2.439v-2.821h2.439V312.188z M284.91,308.367h-2.439v-2.821h2.439V308.367z M284.91,304.546h-2.439
				v-2.821h2.439V304.546z"/>
			<g>
				<path style="fill:#FFFFFF;stroke:#263238;stroke-miterlimit:10;" d="M247.931,360.739c-3.367,0-6.735-0.079-10.08-0.236
					l-13.151-0.62c-9.582-0.451-17.087-8.153-17.087-17.534v-35.22c0-9.022,6.919-16.528,16.095-17.461l7.46-0.759
					c10.713-1.088,21.58-1.134,32.297-0.134l10.756,1.003c9.263,0.863,16.248,8.376,16.248,17.476v35.042
					c0,9.413-7.532,17.117-17.148,17.538l-16.012,0.701C254.197,360.671,251.065,360.739,247.931,360.739z M248.008,291.057
					c-5.526,0-11.051,0.278-16.537,0.836l-7.46,0.759c-7.639,0.776-13.399,7-13.399,14.477v35.22c0,7.776,6.25,14.162,14.229,14.538
					l13.151,0.62c6.368,0.3,12.824,0.31,19.184,0.03l16.013-0.701c8.007-0.35,14.279-6.737,14.279-14.54v-35.042
					c0-7.541-5.815-13.77-13.526-14.489l-10.756-1.003C258.15,291.292,253.079,291.057,248.008,291.057z"/>
			</g>
			<g>
				<path style="fill:#263238;stroke:#263238;stroke-miterlimit:10;" d="M193.323,305.653c1.713,0,3.332,0.63,4.61,1.807
					c1.423,1.309,2.207,3.096,2.207,5.03v19.676c0,1.843-0.722,3.57-2.033,4.865c-1.29,1.273-2.992,1.972-4.802,1.972
					c-0.03,0-0.06,0-0.09-0.001l-64.518-0.836c-3.651-0.047-6.613-2.942-6.744-6.592l-0.479-13.441
					c-0.131-3.654,2.622-6.754,6.266-7.057l64.998-5.398C192.934,305.661,193.129,305.653,193.323,305.653z"/>
				<g>
					<path style="fill:#FFFFFF;stroke:#263238;stroke-miterlimit:10;" d="M193.306,342.003c2.604,0,5.053-1.005,6.909-2.837
						c1.887-1.863,2.926-4.349,2.926-7V312.49c0-2.742-1.158-5.381-3.176-7.238c-2.018-1.856-4.74-2.788-7.476-2.564l-64.998,5.398
						c-5.244,0.437-9.204,4.897-9.016,10.154l0.479,13.441c0.188,5.25,4.45,9.416,9.703,9.484l64.518,0.836
						C193.219,342.002,193.263,342.003,193.306,342.003z M193.323,305.653c1.713,0,3.332,0.63,4.61,1.807
						c1.423,1.309,2.207,3.096,2.207,5.03v19.676c0,1.843-0.722,3.57-2.033,4.865c-1.29,1.273-2.992,1.972-4.802,1.972
						c-0.03,0-0.06,0-0.09-0.001l-64.518-0.836c-3.651-0.047-6.613-2.942-6.744-6.592l-0.479-13.441
						c-0.131-3.654,2.622-6.754,6.266-7.057l64.998-5.398C192.934,305.661,193.129,305.653,193.323,305.653z"/>
				</g>
				<path style="fill:#FFFFFF;" d="M125.892,311.494v0.867h3.273v-1.404l1-0.083v1.487h3.273v-1.759l1-0.083v1.842h3.272v-2.113
					l1-0.083v2.197h3.273v-2.468l1-0.083v2.551h3.273v-2.823l1-0.083v2.906h3.273v-3.178l1-0.083v3.261h3.274v-3.416h-1.41l12.04-1
					h2.189v-0.182l1-0.083v0.265h3.273v-0.537l1-0.083v0.62h3.273v-0.892l1-0.083v0.975h3.273v-1.247l1-0.083v1.33h3.273v-1.602
					l1-0.083v1.685h3.273v-1.956l1-0.083v2.039h3.273v-2.289c0.019,0,0.039-0.003,0.059-0.003c0.318,0,0.631,0.029,0.941,0.072v2.22
					h3.273v-0.817c0.134,0.107,0.268,0.215,0.395,0.332c0.482,0.443,0.884,0.945,1.214,1.485h-0.609v3.416h1.596
					c0.001,0.043,0.007,0.085,0.007,0.129v0.871h-1.602v3.416h1.602v1h-1.602v3.416h1.602v1h-1.602v3.415h1.602v1h-1.602v3.416
					h1.602v1h-1.602v3.416h1.209c-0.121,0.344-0.264,0.68-0.439,1h-0.77v1.122c-0.136,0.161-0.279,0.319-0.431,0.469
					c-0.181,0.179-0.373,0.344-0.569,0.499v-2.09h-3.273v3.488c-0.316,0.044-0.635,0.074-0.96,0.074c-0.013,0-0.027,0-0.04,0v-3.562
					h-3.273v3.52l-1-0.013v-3.507h-3.273v3.464l-1-0.013v-3.451h-3.273v3.409l-1-0.013v-3.396h-3.273v3.354l-1-0.013v-3.341h-3.273
					v3.298l-1-0.013v-3.285h-3.273v3.243l-1-0.013v-3.23h-3.273v3.188l-1-0.013v-3.175h-3.273v3.132l-1-0.013v-3.119h-3.273v3.077
					l-1-0.013v-3.064h-3.274v3.021l-1-0.013v-3.009h-3.273v2.966l-1-0.013v-2.953h-3.273v2.911l-1-0.013v-2.898h-3.273v2.855
					l-1-0.013v-2.842h-3.272v2.8l-1-0.013v-2.787h-3.273v2.745l-1-0.013v-2.732h-3.273v2.079c-0.35-0.164-0.685-0.354-1-0.572
					v-1.507h-1.565c-0.236-0.313-0.445-0.647-0.625-1h2.19v-3.416h-2.959l-0.036-1h2.995v-3.416h-3.117l-0.036-1h3.152v-3.415
					h-3.274l-0.036-1h3.31v-3.416h-3.414c0.005-0.339,0.028-0.674,0.081-1h3.333v-3.416h-1.713c0.33-0.373,0.703-0.706,1.108-1
					h0.604v-0.391C125.21,311.787,125.543,311.625,125.892,311.494z M194.265,334.44h3.273v-3.416h-3.273V334.44z M194.265,330.024
					h3.273v-3.416h-3.273V330.024z M194.265,325.608h3.273v-3.415h-3.273V325.608z M194.265,321.193h3.273v-3.416h-3.273V321.193z
					 M194.265,316.777h3.273v-3.416h-3.273V316.777z M194.265,312.361h3.273v-3.416h-3.273V312.361z M189.991,334.44h3.273v-3.416
					h-3.273V334.44z M189.991,330.024h3.273v-3.416h-3.273V330.024z M189.991,325.608h3.273v-3.415h-3.273V325.608z
					 M189.991,321.193h3.273v-3.416h-3.273V321.193z M189.991,316.777h3.273v-3.416h-3.273V316.777z M189.991,312.361h3.273v-3.416
					h-3.273V312.361z M185.718,334.44h3.273v-3.416h-3.273V334.44z M185.718,330.024h3.273v-3.416h-3.273V330.024z M185.718,325.608
					h3.273v-3.415h-3.273V325.608z M185.718,321.193h3.273v-3.416h-3.273V321.193z M185.718,316.777h3.273v-3.416h-3.273V316.777z
					 M185.718,312.361h3.273v-3.416h-3.273V312.361z M181.445,334.44h3.273v-3.416h-3.273V334.44z M181.445,330.024h3.273v-3.416
					h-3.273V330.024z M181.445,325.608h3.273v-3.415h-3.273V325.608z M181.445,321.193h3.273v-3.416h-3.273V321.193z
					 M181.445,316.777h3.273v-3.416h-3.273V316.777z M181.445,312.361h3.273v-3.416h-3.273V312.361z M177.171,334.44h3.273v-3.416
					h-3.273V334.44z M177.171,330.024h3.273v-3.416h-3.273V330.024z M177.171,325.608h3.273v-3.415h-3.273V325.608z
					 M177.171,321.193h3.273v-3.416h-3.273V321.193z M177.171,316.777h3.273v-3.416h-3.273V316.777z M177.171,312.361h3.273v-3.416
					h-3.273V312.361z M172.898,334.44h3.273v-3.416h-3.273V334.44z M172.898,330.024h3.273v-3.416h-3.273V330.024z M172.898,325.608
					h3.273v-3.415h-3.273V325.608z M172.898,321.193h3.273v-3.416h-3.273V321.193z M172.898,316.777h3.273v-3.416h-3.273V316.777z
					 M172.898,312.361h3.273v-3.416h-3.273V312.361z M168.624,334.44h3.273v-3.416h-3.273V334.44z M168.624,330.024h3.273v-3.416
					h-3.273V330.024z M168.624,325.608h3.273v-3.415h-3.273V325.608z M168.624,321.193h3.273v-3.416h-3.273V321.193z
					 M168.624,316.777h3.273v-3.416h-3.273V316.777z M168.624,312.361h3.273v-3.416h-3.273V312.361z M164.351,334.44h3.273v-3.416
					h-3.273V334.44z M164.351,330.024h3.273v-3.416h-3.273V330.024z M164.351,325.608h3.273v-3.415h-3.273V325.608z
					 M164.351,321.193h3.273v-3.416h-3.273V321.193z M164.351,316.777h3.273v-3.416h-3.273V316.777z M164.351,312.361h3.273v-3.416
					h-3.273V312.361z M160.079,334.44h3.273v-3.416h-3.273V334.44z M160.079,330.024h3.273v-3.416h-3.273V330.024z M160.079,325.608
					h3.273v-3.415h-3.273V325.608z M160.079,321.193h3.273v-3.416h-3.273V321.193z M160.079,316.777h3.273v-3.416h-3.273V316.777z
					 M160.079,312.361h3.273v-3.416h-3.273V312.361z M155.805,334.44h3.273v-3.416h-3.273V334.44z M155.805,330.024h3.273v-3.416
					h-3.273V330.024z M155.805,325.608h3.273v-3.415h-3.273V325.608z M155.805,321.193h3.273v-3.416h-3.273V321.193z
					 M155.805,316.777h3.273v-3.416h-3.273V316.777z M155.805,312.361h3.273v-3.416h-3.273V312.361z M151.532,334.44h3.274v-3.416
					h-3.274V334.44z M151.532,330.024h3.274v-3.416h-3.274V330.024z M151.532,325.608h3.274v-3.415h-3.274V325.608z
					 M151.532,321.193h3.274v-3.416h-3.274V321.193z M151.532,316.777h3.274v-3.416h-3.274V316.777z M147.258,334.44h3.273v-3.416
					h-3.273V334.44z M147.258,330.024h3.273v-3.416h-3.273V330.024z M147.258,325.608h3.273v-3.415h-3.273V325.608z
					 M147.258,321.193h3.273v-3.416h-3.273V321.193z M147.258,316.777h3.273v-3.416h-3.273V316.777z M142.985,334.44h3.273v-3.416
					h-3.273V334.44z M142.985,330.024h3.273v-3.416h-3.273V330.024z M142.985,325.608h3.273v-3.415h-3.273V325.608z
					 M142.985,321.193h3.273v-3.416h-3.273V321.193z M142.985,316.777h3.273v-3.416h-3.273V316.777z M138.711,334.44h3.273v-3.416
					h-3.273V334.44z M138.711,330.024h3.273v-3.416h-3.273V330.024z M138.711,325.608h3.273v-3.415h-3.273V325.608z
					 M138.711,321.193h3.273v-3.416h-3.273V321.193z M138.711,316.777h3.273v-3.416h-3.273V316.777z M134.439,334.44h3.272v-3.416
					h-3.272V334.44z M134.439,330.024h3.272v-3.416h-3.272V330.024z M134.439,325.608h3.272v-3.415h-3.272V325.608z
					 M134.439,321.193h3.272v-3.416h-3.272V321.193z M134.439,316.777h3.272v-3.416h-3.272V316.777z M130.165,334.44h3.273v-3.416
					h-3.273V334.44z M130.165,330.024h3.273v-3.416h-3.273V330.024z M130.165,325.608h3.273v-3.415h-3.273V325.608z
					 M130.165,321.193h3.273v-3.416h-3.273V321.193z M130.165,316.777h3.273v-3.416h-3.273V316.777z M125.892,334.44h3.273v-3.416
					h-3.273V334.44z M125.892,330.024h3.273v-3.416h-3.273V330.024z M125.892,325.608h3.273v-3.415h-3.273V325.608z
					 M125.892,321.193h3.273v-3.416h-3.273V321.193z M125.892,316.777h3.273v-3.416h-3.273V316.777z"/>
				<g>
					
						<ellipse transform="matrix(0.7071 -0.7071 0.7071 0.7071 -189.6483 189.5711)" style="fill:#FFFFFF;stroke:#263238;stroke-miterlimit:10;" cx="134.008" cy="323.711" rx="9.046" ry="9.046"/>
					<path style="fill:#FFFFFF;stroke:#263238;stroke-miterlimit:10;" d="M128.074,323.711c0-3.277,2.657-5.934,5.934-5.934
						c3.277,0,5.934,2.657,5.934,5.934c0,3.277-2.657,5.934-5.934,5.934C130.731,329.645,128.074,326.988,128.074,323.711z"/>
				</g>
			</g>
			<g>
				<path style="fill:#FFFFFF;stroke:#263238;stroke-miterlimit:10;" d="M67.914,347.789h-9.826c0,0,0.234,13.803,1.638,21.992
					c1.404,8.188,3.977,9.124,6.083,9.124c2.106,0,25.033-1.404,25.033-1.404l340.173,4.211c0,0,4.913,0,6.317-3.509
					c1.404-3.509,3.275-23.864,2.34-25.033c-0.936-1.17-4.445-1.638-7.019-1.17c-2.573,0.468-5.147,4.679-11.23,8.188
					c-6.083,3.509-14.037,3.743-19.185,0.468c-5.147-3.275-10.294-7.955-12.634-8.656c-2.34-0.702-86.096-2.807-90.307-1.872
					c-4.211,0.936-7.72,3.977-8.422,5.381c-0.702,1.404-3.275,4.445-7.487,5.849c-4.211,1.404-69.251,0-69.251,0
					s-6.551-2.573-9.124-6.317c-2.574-3.743-3.743-7.019-8.423-7.253c-4.679-0.234-85.862-1.638-87.734-0.468
					c-1.872,1.17-4.913,5.615-8.188,8.89c-3.275,3.275-10.762,4.679-17.547,4.445C76.336,360.422,67.914,347.789,67.914,347.789z"/>
				<path style="fill:#FFFFFF;stroke:#263238;stroke-miterlimit:10;" d="M437.503,366.678c0,0-0.318,3.498-6.042,4.452
					c-5.724,0.954-119.566,0-119.566,0"/>
				<path style="fill:none;stroke:#263238;stroke-miterlimit:10;" d="M187.559,368.268l-112.888,0.318
					c0,0-10.176,2.226-14.628-10.812"/>
			</g>
			<path style="fill:#FFFFFF;stroke:#263238;stroke-miterlimit:10;" d="M303.91,387.03H194.273c-2.478,0-4.488-2.009-4.488-4.488
				v-15.51c0-2.478,2.009-4.488,4.488-4.488H303.91c2.478,0,4.487,2.009,4.487,4.488v15.51
				C308.397,385.02,306.388,387.03,303.91,387.03z"/>
			<path style="fill:none;stroke:#263238;stroke-miterlimit:10;" d="M329.507,286.495c12.912,0.886,24.899,1.603,26.589,1.321
				c3.816-0.636,4.452-3.816,5.724-5.088c1.272-1.272,12.402-24.167,12.402-24.167"/>
			<path style="fill:none;stroke:#263238;stroke-miterlimit:10;" d="M178.2,283.763c12.898-0.201,24.293-0.579,25.259-0.717
				c2.226-0.318,16.536-10.176,44.201-8.268c27.666,1.908,35.933,2.226,39.749,5.088c3.816,2.862,6.678,4.134,7.632,4.134
				c0.488,0,15.446,1.164,30.457,2.217"/>
			<path style="fill:none;stroke:#263238;stroke-miterlimit:10;" d="M132.245,266.049c2.195,6.772,5.352,15.358,7.615,16.678
				c1.881,1.097,16.824,1.267,31.76,1.12"/>
			<path style="fill:none;stroke:#263238;stroke-miterlimit:10;" d="M129.684,257.606c0,0,0.574,2.067,1.481,5.02"/>
			<line style="fill:none;stroke:#263238;stroke-miterlimit:10;" x1="384.398" y1="308.167" x2="384.398" y2="350.46"/>
			<line style="fill:none;stroke:#263238;stroke-miterlimit:10;" x1="115.693" y1="299.263" x2="115.693" y2="345.054"/>
			<path style="fill:none;stroke:#263238;stroke-miterlimit:10;" d="M211.091,250.292c0,0-7.95,7.95-7.95,17.49
				s2.544,20.988,1.272,26.076"/>
			<path style="fill:none;stroke:#263238;stroke-miterlimit:10;" d="M294.695,259.279c0.832,2.515,1.399,5.487,1.301,8.821
				c-0.318,10.812-3.498,18.444-1.59,26.076"/>
			<path style="fill:none;stroke:#263238;stroke-miterlimit:10;" d="M289.636,250.292c0,0,1.797,1.882,3.482,5.203"/>
			<g>
				<path style="fill:#263238;stroke:#263238;stroke-miterlimit:10;" d="M304.84,305.653c-1.713,0-3.332,0.63-4.61,1.807
					c-1.423,1.309-2.207,3.096-2.207,5.03v19.676c0,1.843,0.722,3.57,2.033,4.865c1.29,1.273,2.992,1.972,4.802,1.972
					c0.03,0,0.06,0,0.09-0.001l64.518-0.836c3.651-0.047,6.613-2.942,6.744-6.592l0.479-13.441c0.131-3.654-2.622-6.754-6.266-7.057
					l-64.999-5.398C305.229,305.661,305.034,305.653,304.84,305.653z"/>
				<g>
					<path style="fill:#FFFFFF;stroke:#263238;stroke-miterlimit:10;" d="M304.857,342.003c-2.604,0-5.053-1.005-6.909-2.837
						c-1.887-1.863-2.926-4.349-2.926-7V312.49c0-2.742,1.158-5.381,3.176-7.238c2.018-1.856,4.74-2.788,7.476-2.564l64.998,5.398
						c5.244,0.437,9.204,4.897,9.016,10.154l-0.479,13.441c-0.188,5.25-4.45,9.416-9.703,9.484l-64.518,0.836
						C304.944,342.002,304.9,342.003,304.857,342.003z M304.84,305.653c-1.713,0-3.332,0.63-4.61,1.807
						c-1.423,1.309-2.207,3.096-2.207,5.03v19.676c0,1.843,0.722,3.57,2.033,4.865c1.29,1.273,2.992,1.972,4.802,1.972
						c0.03,0,0.06,0,0.09-0.001l64.518-0.836c3.651-0.047,6.613-2.942,6.744-6.592l0.479-13.441
						c0.131-3.654-2.622-6.754-6.266-7.057l-64.999-5.398C305.229,305.661,305.034,305.653,304.84,305.653z"/>
				</g>
				<path style="fill:#FFFFFF;" d="M372.271,311.494v0.867h-3.273v-1.404l-1-0.083v1.487h-3.273v-1.759l-1-0.083v1.842h-3.273
					v-2.113l-1-0.083v2.197h-3.273v-2.468l-1-0.083v2.551h-3.273v-2.823l-1-0.083v2.906h-3.273v-3.178l-1-0.083v3.261h-3.273v-3.416
					h1.41l-12.04-1h-2.189v-0.182l-1-0.083v0.265h-3.273v-0.537l-1-0.083v0.62h-3.273v-0.892l-1-0.083v0.975h-3.273v-1.247l-1-0.083
					v1.33h-3.273v-1.602l-1-0.083v1.685h-3.273v-1.956l-1-0.083v2.039h-3.273v-2.289c-0.02,0-0.039-0.003-0.059-0.003
					c-0.318,0-0.631,0.029-0.941,0.072v2.22h-3.273v-0.817c-0.134,0.107-0.268,0.215-0.395,0.332
					c-0.482,0.443-0.884,0.945-1.214,1.485h0.609v3.416h-1.596c-0.001,0.043-0.007,0.085-0.007,0.129v0.871h1.602v3.416h-1.602v1
					h1.602v3.416h-1.602v1h1.602v3.415h-1.602v1h1.602v3.416h-1.602v1h1.602v3.416h-1.209c0.121,0.344,0.264,0.68,0.439,1h0.77
					v1.122c0.136,0.161,0.279,0.319,0.431,0.469c0.181,0.179,0.373,0.344,0.569,0.499v-2.09h3.273v3.488
					c0.316,0.044,0.635,0.074,0.96,0.074c0.013,0,0.027,0,0.04,0v-3.562h3.273v3.52l1-0.013v-3.507h3.273v3.464l1-0.013v-3.451
					h3.273v3.409l1-0.013v-3.396h3.273v3.354l1-0.013v-3.341h3.273v3.298l1-0.013v-3.285h3.273v3.243l1-0.013v-3.23h3.273v3.188
					l1-0.013v-3.175h3.272v3.132l1-0.013v-3.119h3.273v3.077l1-0.013v-3.064h3.273v3.021l1-0.013v-3.009h3.273v2.966l1-0.013v-2.953
					h3.273v2.911l1-0.013v-2.898h3.273v2.855l1-0.013v-2.842h3.273v2.8l1-0.013v-2.787h3.273v2.745l1-0.013v-2.732h3.273v2.079
					c0.35-0.164,0.685-0.354,1-0.572v-1.507h1.565c0.236-0.313,0.445-0.647,0.625-1h-2.19v-3.416h2.959l0.036-1h-2.995v-3.416h3.117
					l0.036-1h-3.152v-3.415h3.274l0.036-1h-3.31v-3.416h3.414c-0.005-0.339-0.028-0.674-0.081-1h-3.333v-3.416h1.713
					c-0.33-0.373-0.703-0.706-1.108-1h-0.604v-0.391C372.952,311.787,372.62,311.625,372.271,311.494z M303.898,334.44h-3.273
					v-3.416h3.273V334.44z M303.898,330.024h-3.273v-3.416h3.273V330.024z M303.898,325.608h-3.273v-3.415h3.273V325.608z
					 M303.898,321.193h-3.273v-3.416h3.273V321.193z M303.898,316.777h-3.273v-3.416h3.273V316.777z M303.898,312.361h-3.273v-3.416
					h3.273V312.361z M308.172,334.44h-3.273v-3.416h3.273V334.44z M308.172,330.024h-3.273v-3.416h3.273V330.024z M308.172,325.608
					h-3.273v-3.415h3.273V325.608z M308.172,321.193h-3.273v-3.416h3.273V321.193z M308.172,316.777h-3.273v-3.416h3.273V316.777z
					 M308.172,312.361h-3.273v-3.416h3.273V312.361z M312.445,334.44h-3.273v-3.416h3.273V334.44z M312.445,330.024h-3.273v-3.416
					h3.273V330.024z M312.445,325.608h-3.273v-3.415h3.273V325.608z M312.445,321.193h-3.273v-3.416h3.273V321.193z
					 M312.445,316.777h-3.273v-3.416h3.273V316.777z M312.445,312.361h-3.273v-3.416h3.273V312.361z M316.718,334.44h-3.273v-3.416
					h3.273V334.44z M316.718,330.024h-3.273v-3.416h3.273V330.024z M316.718,325.608h-3.273v-3.415h3.273V325.608z M316.718,321.193
					h-3.273v-3.416h3.273V321.193z M316.718,316.777h-3.273v-3.416h3.273V316.777z M316.718,312.361h-3.273v-3.416h3.273V312.361z
					 M320.991,334.44h-3.273v-3.416h3.273V334.44z M320.991,330.024h-3.273v-3.416h3.273V330.024z M320.991,325.608h-3.273v-3.415
					h3.273V325.608z M320.991,321.193h-3.273v-3.416h3.273V321.193z M320.991,316.777h-3.273v-3.416h3.273V316.777z
					 M320.991,312.361h-3.273v-3.416h3.273V312.361z M325.265,334.44h-3.273v-3.416h3.273V334.44z M325.265,330.024h-3.273v-3.416
					h3.273V330.024z M325.265,325.608h-3.273v-3.415h3.273V325.608z M325.265,321.193h-3.273v-3.416h3.273V321.193z
					 M325.265,316.777h-3.273v-3.416h3.273V316.777z M325.265,312.361h-3.273v-3.416h3.273V312.361z M329.538,334.44h-3.273v-3.416
					h3.273V334.44z M329.538,330.024h-3.273v-3.416h3.273V330.024z M329.538,325.608h-3.273v-3.415h3.273V325.608z M329.538,321.193
					h-3.273v-3.416h3.273V321.193z M329.538,316.777h-3.273v-3.416h3.273V316.777z M329.538,312.361h-3.273v-3.416h3.273V312.361z
					 M333.812,334.44h-3.273v-3.416h3.273V334.44z M333.812,330.024h-3.273v-3.416h3.273V330.024z M333.812,325.608h-3.273v-3.415
					h3.273V325.608z M333.812,321.193h-3.273v-3.416h3.273V321.193z M333.812,316.777h-3.273v-3.416h3.273V316.777z
					 M333.812,312.361h-3.273v-3.416h3.273V312.361z M338.084,334.44h-3.272v-3.416h3.272V334.44z M338.084,330.024h-3.272v-3.416
					h3.272V330.024z M338.084,325.608h-3.272v-3.415h3.272V325.608z M338.084,321.193h-3.272v-3.416h3.272V321.193z
					 M338.084,316.777h-3.272v-3.416h3.272V316.777z M338.084,312.361h-3.272v-3.416h3.272V312.361z M342.358,334.44h-3.273v-3.416
					h3.273V334.44z M342.358,330.024h-3.273v-3.416h3.273V330.024z M342.358,325.608h-3.273v-3.415h3.273V325.608z M342.358,321.193
					h-3.273v-3.416h3.273V321.193z M342.358,316.777h-3.273v-3.416h3.273V316.777z M342.358,312.361h-3.273v-3.416h3.273V312.361z
					 M346.631,334.44h-3.273v-3.416h3.273V334.44z M346.631,330.024h-3.273v-3.416h3.273V330.024z M346.631,325.608h-3.273v-3.415
					h3.273V325.608z M346.631,321.193h-3.273v-3.416h3.273V321.193z M346.631,316.777h-3.273v-3.416h3.273V316.777z M350.904,334.44
					h-3.273v-3.416h3.273V334.44z M350.904,330.024h-3.273v-3.416h3.273V330.024z M350.904,325.608h-3.273v-3.415h3.273V325.608z
					 M350.904,321.193h-3.273v-3.416h3.273V321.193z M350.904,316.777h-3.273v-3.416h3.273V316.777z M355.178,334.44h-3.273v-3.416
					h3.273V334.44z M355.178,330.024h-3.273v-3.416h3.273V330.024z M355.178,325.608h-3.273v-3.415h3.273V325.608z M355.178,321.193
					h-3.273v-3.416h3.273V321.193z M355.178,316.777h-3.273v-3.416h3.273V316.777z M359.451,334.44h-3.273v-3.416h3.273V334.44z
					 M359.451,330.024h-3.273v-3.416h3.273V330.024z M359.451,325.608h-3.273v-3.415h3.273V325.608z M359.451,321.193h-3.273v-3.416
					h3.273V321.193z M359.451,316.777h-3.273v-3.416h3.273V316.777z M363.724,334.44h-3.273v-3.416h3.273V334.44z M363.724,330.024
					h-3.273v-3.416h3.273V330.024z M363.724,325.608h-3.273v-3.415h3.273V325.608z M363.724,321.193h-3.273v-3.416h3.273V321.193z
					 M363.724,316.777h-3.273v-3.416h3.273V316.777z M367.997,334.44h-3.273v-3.416h3.273V334.44z M367.997,330.024h-3.273v-3.416
					h3.273V330.024z M367.997,325.608h-3.273v-3.415h3.273V325.608z M367.997,321.193h-3.273v-3.416h3.273V321.193z
					 M367.997,316.777h-3.273v-3.416h3.273V316.777z M372.271,334.44h-3.273v-3.416h3.273V334.44z M372.271,330.024h-3.273v-3.416
					h3.273V330.024z M372.271,325.608h-3.273v-3.415h3.273V325.608z M372.271,321.193h-3.273v-3.416h3.273V321.193z
					 M372.271,316.777h-3.273v-3.416h3.273V316.777z"/>
				<g>
					
						<ellipse transform="matrix(0.973 -0.2306 0.2306 0.973 -64.8445 92.7191)" style="fill:#FFFFFF;stroke:#263238;stroke-miterlimit:10;" cx="364.154" cy="323.711" rx="9.046" ry="9.046"/>
					<circle style="fill:#FFFFFF;stroke:#263238;stroke-miterlimit:10;" cx="364.154" cy="323.711" r="5.934"/>
				</g>
			</g>
			<path style="fill:#FFFFFF;stroke:#263238;stroke-miterlimit:10;" d="M110.631,257.512c0,0,2.107,3.311,4.515,6.923
				c2.408,3.612,7.224-3.913,7.224-6.622C122.37,255.104,110.631,257.512,110.631,257.512z"/>
			<path style="fill:#FFFFFF;stroke:#263238;stroke-miterlimit:10;" d="M391.468,258.716c0,0-2.107,3.311-4.515,6.923
				c-2.408,3.612-7.224-3.913-7.224-6.622C379.729,256.308,391.468,258.716,391.468,258.716z"/>
		</g>
	</g>
</g>
</svg>
